<?xml version="1.0" encoding="iso-8859-1"?>
<!-- Generator: Adobe Illustrator 16.0.0, SVG Export Plug-In . SVG Version: 6.00 Build 0)  -->
<!DOCTYPE svg PUBLIC "-//W3C//DTD SVG 1.1//EN" "http://www.w3.org/Graphics/SVG/1.1/DTD/svg11.dtd">
<svg version="1.1" id="Capa_1" xmlns="http://www.w3.org/2000/svg" xmlns:xlink="http://www.w3.org/1999/xlink" x="0px" y="0px"
	 width="464.794px" height="464.794px" viewBox="0 0 464.794 464.794" style="enable-background:new 0 0 464.794 464.794;"
	 xml:space="preserve">
	<g>
		<path d="M338.026,41.49H126.777c-1.635,0-2.963,1.328-2.963,2.963v370.969c0,1.636,1.328,2.961,2.963,2.961h211.249
			c1.635,0,2.96-1.325,2.96-2.961V44.453C340.986,42.817,339.661,41.49,338.026,41.49z M335.06,412.466H129.74V47.416h205.32
			V412.466z"/>
		<path d="M250.09,424.318h-35.244c-6.296,0-11.423,4.799-11.423,10.71s5.126,10.714,11.423,10.714h35.244
			c6.297,0,11.415-4.803,11.415-10.714S256.387,424.318,250.09,424.318z M250.09,439.827h-35.244c-3.034,0-5.499-2.153-5.499-4.789
			c0-2.646,2.465-4.788,5.499-4.788h35.244c3.026,0,5.489,2.147,5.489,4.788C255.589,437.673,253.122,439.827,250.09,439.827z"/>
		<path d="M213.638,27.594h44.16c2.103,0,3.809-1.707,3.809-3.809c0-2.1-1.706-3.806-3.809-3.806h-44.16
			c-2.103,0-3.809,1.707-3.809,3.806C209.83,25.88,211.536,27.594,213.638,27.594z M213.638,21.955h44.16
			c1.011,0,1.833,0.82,1.833,1.831c0,1.013-0.822,1.833-1.833,1.833h-44.16c-1.011,0-1.833-0.82-1.833-1.833
			C211.805,22.775,212.627,21.955,213.638,21.955z"/>
		<circle cx="216.458" cy="23.786" r="1.027"/>
		<circle cx="219.445" cy="23.786" r="1.027"/>
		<circle cx="222.446" cy="23.786" r="1.027"/>
		<circle cx="225.439" cy="23.786" r="1.027"/>
		<circle cx="228.435" cy="23.786" r="1.027"/>
		<circle cx="231.436" cy="23.786" r="1.027"/>
		<circle cx="234.43" cy="23.786" r="1.027"/>
		<circle cx="237.425" cy="23.786" r="1.027"/>
		<path d="M240.417,22.759c0.569,0,1.031,0.46,1.031,1.026c0,0.569-0.462,1.028-1.031,1.028c-0.563,0-1.025-0.459-1.025-1.028
			C239.391,23.219,239.853,22.759,240.417,22.759z"/>
		<circle cx="243.413" cy="23.786" r="1.027"/>
		<path d="M246.409,22.759c0.563,0,1.025,0.46,1.025,1.026c0,0.569-0.462,1.028-1.025,1.028c-0.569,0-1.031-0.459-1.031-1.028
			C245.377,23.219,245.839,22.759,246.409,22.759z"/>
		<path d="M249.4,22.759c0.568,0,1.03,0.46,1.03,1.026c0,0.569-0.462,1.028-1.03,1.028c-0.564,0-1.026-0.459-1.026-1.028
			C248.374,23.219,248.835,22.759,249.4,22.759z"/>
		<path d="M252.396,22.759c0.568,0,1.025,0.46,1.025,1.026c0,0.569-0.457,1.028-1.025,1.028c-0.569,0-1.026-0.459-1.026-1.028
			C251.37,23.219,251.827,22.759,252.396,22.759z"/>
		<path d="M255.397,22.759c0.568,0,1.025,0.46,1.025,1.026c0,0.569-0.457,1.028-1.025,1.028c-0.569,0-1.026-0.459-1.026-1.028
			C254.371,23.219,254.828,22.759,255.397,22.759z"/>
		<circle cx="272.997" cy="22.75" r="3.145"/>
		<circle cx="282.945" cy="22.75" r="3.145"/>
		<path d="M311.919,18.524c2.904,0,5.256,2.354,5.256,5.253c0,2.902-2.352,5.253-5.256,5.253c-2.899,0-5.25-2.351-5.25-5.253
			C306.669,20.878,309.02,18.524,311.919,18.524z"/>
		<path d="M172.841,429.269h-15.355c-0.482,0-0.863,0.386-0.863,0.863v7.932c0,0.473,0.381,0.858,0.863,0.858
			c0.472,0,0.853-0.386,0.853-0.858v-7.078h13.642v7.078c0,0.473,0.388,0.858,0.86,0.858c0.467,0,0.854-0.386,0.854-0.858v-7.932
			C173.702,429.65,173.316,429.269,172.841,429.269z"/>
		<path d="M168.639,438.349h-7.094c-0.475,0-0.853,0.386-0.853,0.857c0,0.478,0.378,0.854,0.853,0.854h7.094
			c0.482,0,0.861-0.376,0.861-0.854C169.5,438.735,169.122,438.349,168.639,438.349z"/>
		<path d="M168.639,441.801h-7.094c-0.475,0-0.853,0.392-0.853,0.858c0,0.473,0.378,0.863,0.853,0.863h7.094
			c0.482,0,0.861-0.391,0.861-0.863C169.5,442.193,169.122,441.801,168.639,441.801z"/>
		<path d="M303.343,431.062h-5.911l0.173-0.417l-3.006,1.27l3.006,1.274l-0.173-0.411h5.911c1.792,0,3.244,1.407,3.244,3.144
			s-1.452,3.144-3.244,3.144h-5.789c-0.482,0-0.854,0.386-0.854,0.853c0,0.478,0.376,0.863,0.854,0.863h5.789
			c2.731,0,4.951-2.188,4.951-4.864C308.294,433.246,306.075,431.062,303.343,431.062z"/>
		<path d="M358.139,416.584V48.213C358.139,21.629,336.507,0,309.924,0H154.871c-26.594,0-48.215,21.629-48.215,48.213v368.372
			c0,26.583,21.632,48.21,48.215,48.21h155.054C336.507,464.794,358.139,443.167,358.139,416.584z M309.924,452.948H154.871
			c-20.051,0-36.363-16.315-36.363-36.363V48.213c0-20.05,16.312-36.364,36.363-36.364h155.054
			c20.048,0,36.363,16.313,36.363,36.364v368.372C346.288,436.632,329.982,452.948,309.924,452.948z"/>
	</g>
</svg>
